<svg xmlns="http://www.w3.org/2000/svg" xmlns:xlink="http://www.w3.org/1999/xlink" width="500" zoomAndPan="magnify" viewBox="0 0 375 374.999991" height="500" preserveAspectRatio="xMidYMid meet" version="1.0"><defs><clipPath id="e1511e28c7"><path d="M 12 9 L 367.574219 9 L 367.574219 364 L 12 364 Z M 12 9 " clip-rule="nonzero"/></clipPath></defs><g clip-path="url(#e1511e28c7)"><path fill="#de6da0" d="M 287.144531 260.808594 C 288.945312 265.367188 288.539062 266.671875 288.375 267.109375 C 287.933594 268.152344 287.210938 268.933594 286.207031 269.449219 C 283.394531 268.792969 279.683594 269.050781 277.917969 267.324219 C 274.601562 264.164062 271.0625 261.285156 267.296875 258.679688 C 263.535156 256.074219 259.589844 253.777344 255.464844 251.789062 C 251.34375 249.800781 247.089844 248.144531 242.707031 246.820312 C 238.324219 245.496094 233.867188 244.523438 229.332031 243.894531 C 197.835938 238.644531 167.484375 243.945312 137.757812 254.3125 C 131.128906 256.628906 124.65625 259.398438 117.40625 262.238281 L 82.582031 188.214844 C 99.625 176.339844 116.839844 165.84375 132.308594 153.214844 C 154.628906 134.988281 172.046875 112.722656 178.472656 83.734375 C 179.820312 76.550781 180.375 69.304688 180.132812 62 C 180.132812 58.007812 178.789062 53.757812 183.65625 52.195312 C 189.183594 50.425781 190.460938 55.21875 192.1875 58.878906 C 210.058594 96.878906 227.933594 134.875 245.8125 172.863281 C 259.125 201.152344 272.445312 229.433594 285.773438 257.710938 C 286.289062 258.765625 286.597656 259.429688 287.144531 260.808594 Z M 123.3125 276.421875 C 126.121094 281.90625 130.46875 289.671875 132.421875 293.476562 C 157.449219 285.757812 156.945312 279.765625 149.203125 264.9375 Z M 110.839844 280.71875 L 86.222656 292.363281 C 100.542969 314.59375 114.574219 336.191406 128.429688 357.890625 C 131.535156 362.753906 135.359375 365.292969 140.957031 362.804688 C 145.796875 360.660156 146.574219 355.742188 143.472656 349.132812 C 133.515625 327.921875 123.53125 306.710938 113.523438 285.5 C 112.789062 283.929688 111.824219 282.46875 110.839844 280.742188 Z M 269.425781 14.117188 C 269.058594 13.472656 268.613281 12.886719 268.09375 12.359375 C 267.574219 11.828125 267 11.371094 266.363281 10.984375 C 265.730469 10.601562 265.058594 10.300781 264.347656 10.089844 C 263.640625 9.875 262.914062 9.75 262.171875 9.722656 C 261.453125 9.714844 260.746094 9.796875 260.050781 9.96875 C 259.351562 10.136719 258.6875 10.390625 258.054688 10.730469 C 257.417969 11.066406 256.835938 11.476562 256.308594 11.960938 C 255.777344 12.445312 255.3125 12.988281 254.917969 13.585938 C 250.335938 20.125 245.820312 26.742188 241.363281 33.441406 C 240.953125 34.015625 240.621094 34.632812 240.375 35.296875 C 240.128906 35.960938 239.972656 36.644531 239.910156 37.351562 C 239.847656 38.058594 239.878906 38.757812 240.003906 39.453125 C 240.128906 40.152344 240.34375 40.820312 240.648438 41.457031 C 240.871094 41.921875 241.132812 42.359375 241.441406 42.769531 C 241.746094 43.179688 242.089844 43.558594 242.46875 43.902344 C 242.847656 44.25 243.253906 44.554688 243.695312 44.820312 C 244.132812 45.085938 244.59375 45.308594 245.074219 45.484375 C 245.554688 45.660156 246.050781 45.789062 246.554688 45.871094 C 247.0625 45.953125 247.570312 45.984375 248.082031 45.964844 C 248.597656 45.949219 249.101562 45.878906 249.601562 45.765625 C 250.101562 45.648438 250.585938 45.484375 251.054688 45.277344 C 252.363281 44.601562 253.445312 43.664062 254.296875 42.460938 C 258.832031 35.96875 263.652344 29.003906 268.1875 22.035156 C 268.988281 20.59375 269.433594 19.050781 269.523438 17.40625 C 269.570312 16.878906 269.664062 16.355469 269.761719 15.828125 L 269.953125 14.875 Z M 340.109375 109.136719 C 340.027344 108.398438 339.855469 107.683594 339.59375 106.988281 C 339.332031 106.292969 338.988281 105.640625 338.5625 105.03125 C 338.136719 104.421875 337.644531 103.875 337.082031 103.390625 C 336.519531 102.90625 335.90625 102.5 335.238281 102.167969 C 334.597656 101.867188 333.925781 101.648438 333.226562 101.515625 C 332.53125 101.378906 331.824219 101.335938 331.117188 101.382812 C 330.40625 101.429688 329.714844 101.5625 329.039062 101.785156 C 328.363281 102.007812 327.726562 102.308594 327.125 102.695312 C 320.207031 106.75 313.335938 110.949219 306.507812 115.199219 C 305.902344 115.558594 305.351562 115.992188 304.855469 116.496094 C 304.359375 117 303.9375 117.5625 303.589844 118.175781 C 303.242188 118.792969 302.980469 119.441406 302.804688 120.128906 C 302.628906 120.8125 302.542969 121.507812 302.546875 122.214844 C 302.605469 123.574219 302.96875 124.847656 303.644531 126.03125 C 303.988281 126.636719 304.40625 127.1875 304.898438 127.683594 C 305.386719 128.175781 305.9375 128.59375 306.542969 128.9375 C 307.144531 129.285156 307.785156 129.542969 308.460938 129.710938 C 309.136719 129.882812 309.824219 129.960938 310.519531 129.945312 C 311.992188 129.925781 313.34375 129.511719 314.574219 128.703125 C 321.449219 124.695312 328.703125 120.351562 335.71875 115.867188 C 337.03125 114.878906 338.066406 113.652344 338.820312 112.191406 C 339.105469 111.714844 339.390625 111.285156 339.628906 110.855469 L 340.25 110.09375 Z M 366.644531 236.132812 C 366.410156 235.460938 366.097656 234.828125 365.707031 234.234375 C 365.316406 233.640625 364.859375 233.105469 364.335938 232.625 C 363.808594 232.144531 363.234375 231.738281 362.605469 231.402344 C 361.980469 231.070312 361.320312 230.816406 360.628906 230.644531 C 352.945312 228.449219 345.121094 226.445312 337.339844 224.441406 C 336.65625 224.253906 335.960938 224.15625 335.253906 224.152344 C 334.542969 224.144531 333.847656 224.230469 333.160156 224.40625 C 332.476562 224.582031 331.824219 224.84375 331.203125 225.1875 C 330.585938 225.535156 330.023438 225.953125 329.511719 226.445312 C 328.582031 227.4375 327.910156 228.582031 327.507812 229.882812 C 327.308594 230.550781 327.203125 231.234375 327.1875 231.933594 C 327.175781 232.628906 327.253906 233.316406 327.425781 233.992188 C 327.597656 234.671875 327.859375 235.3125 328.203125 235.917969 C 328.550781 236.523438 328.96875 237.074219 329.464844 237.566406 C 330.503906 238.585938 331.726562 239.269531 333.140625 239.617188 C 340.777344 241.765625 348.984375 244.007812 357.050781 245.964844 C 358.675781 246.214844 360.285156 246.117188 361.871094 245.679688 C 362.394531 245.535156 362.921875 245.441406 363.398438 245.34375 L 364.398438 245.25 L 364.972656 244.4375 C 365.453125 243.875 365.851562 243.257812 366.175781 242.589844 C 366.5 241.925781 366.734375 241.226562 366.878906 240.5 C 367.023438 239.773438 367.078125 239.042969 367.039062 238.304688 C 367 237.5625 366.867188 236.839844 366.644531 236.132812 Z M 69.441406 191.917969 C 56.273438 198.355469 43.332031 203.636719 31.46875 210.714844 C 30.441406 211.363281 29.441406 212.050781 28.476562 212.789062 C 27.507812 213.523438 26.574219 214.296875 25.675781 215.117188 C 24.777344 215.933594 23.917969 216.789062 23.09375 217.683594 C 22.269531 218.578125 21.488281 219.507812 20.75 220.472656 C 20.007812 221.433594 19.3125 222.429688 18.660156 223.453125 C 18.007812 224.480469 17.40625 225.53125 16.847656 226.609375 C 16.289062 227.691406 15.777344 228.792969 15.316406 229.917969 C 14.859375 231.039062 14.449219 232.183594 14.089844 233.34375 C 13.730469 234.503906 13.421875 235.679688 13.167969 236.867188 C 12.914062 238.054688 12.710938 239.253906 12.5625 240.457031 C 12.414062 241.664062 12.320312 242.875 12.277344 244.089844 C 12.238281 245.304688 12.25 246.515625 12.316406 247.730469 C 12.386719 248.941406 12.503906 250.152344 12.679688 251.351562 C 12.851562 252.554688 13.082031 253.75 13.359375 254.929688 C 13.640625 256.113281 13.972656 257.28125 14.355469 258.433594 C 14.738281 259.585938 15.171875 260.71875 15.65625 261.835938 C 16.09375 262.96875 16.578125 264.085938 17.113281 265.175781 C 17.648438 266.269531 18.234375 267.335938 18.867188 268.375 C 19.5 269.414062 20.175781 270.421875 20.902344 271.398438 C 21.625 272.375 22.394531 273.316406 23.203125 274.226562 C 24.015625 275.132812 24.863281 276 25.753906 276.832031 C 26.640625 277.660156 27.566406 278.449219 28.527344 279.195312 C 29.488281 279.941406 30.480469 280.644531 31.503906 281.296875 C 32.53125 281.953125 33.582031 282.5625 34.664062 283.121094 C 35.742188 283.683594 36.84375 284.191406 37.972656 284.652344 C 39.097656 285.113281 40.242188 285.519531 41.40625 285.875 C 42.570312 286.230469 43.746094 286.53125 44.9375 286.78125 C 46.128906 287.03125 47.328125 287.222656 48.535156 287.363281 C 49.746094 287.503906 50.957031 287.585938 52.171875 287.617188 C 53.390625 287.644531 54.605469 287.621094 55.816406 287.539062 C 57.03125 287.457031 58.238281 287.320312 59.441406 287.128906 C 60.640625 286.9375 61.832031 286.691406 63.011719 286.394531 C 77.558594 281.339844 91.769531 275.464844 105.640625 268.773438 Z M 267.761719 146.535156 C 263.417969 137.945312 255.832031 135.167969 243.480469 138.535156 L 258.910156 171.257812 C 269.878906 163.328125 272.351562 155.601562 267.761719 146.535156 Z M 267.761719 146.535156 " fill-opacity="1" fill-rule="nonzero"/></g></svg>