<svg xmlns="http://www.w3.org/2000/svg" xmlns:xlink="http://www.w3.org/1999/xlink" width="500" zoomAndPan="magnify" viewBox="0 0 375 374.999991" height="500" preserveAspectRatio="xMidYMid meet" version="1.0"><defs><clipPath id="cea34b9025"><path d="M 104.210938 24.09375 L 122 24.09375 L 122 351 L 104.210938 351 Z M 104.210938 24.09375 " clip-rule="nonzero"/></clipPath><clipPath id="acdbe1d963"><path d="M 109 77 L 291.710938 77 L 291.710938 239 L 109 239 Z M 109 77 " clip-rule="nonzero"/></clipPath><clipPath id="c6896e93cc"><path d="M 167.261719 120.917969 L 228.761719 120.917969 L 228.761719 195.917969 L 167.261719 195.917969 Z M 167.261719 120.917969 " clip-rule="nonzero"/></clipPath></defs><g clip-path="url(#cea34b9025)"><path fill="#3d1b50" d="M 120.222656 51.988281 L 116.902344 51.988281 L 116.902344 58.621094 C 118.457031 59.804688 119.472656 61.667969 119.472656 63.777344 C 119.472656 65.886719 118.457031 67.75 116.902344 68.933594 L 116.902344 347 C 116.902344 349.152344 115.152344 350.902344 113 350.902344 C 110.847656 350.902344 109.097656 349.152344 109.097656 347 L 109.097656 68.925781 C 107.539062 67.742188 106.527344 65.882812 106.527344 63.769531 C 106.527344 61.660156 107.539062 59.796875 109.097656 58.617188 L 109.097656 51.980469 L 105.777344 51.980469 C 104.976562 51.980469 104.410156 51.207031 104.648438 50.445312 L 113 24.09375 L 121.347656 50.457031 C 121.589844 51.214844 121.015625 51.988281 120.222656 51.988281 Z M 120.222656 51.988281 " fill-opacity="1" fill-rule="nonzero"/></g><g clip-path="url(#acdbe1d963)"><path fill="#39b54a" d="M 277.078125 238.792969 C 266.769531 238.8125 250.855469 237.738281 233.109375 231.308594 C 202.378906 220.175781 193.867188 203.058594 168.089844 194.824219 C 155.675781 190.859375 136.429688 188.046875 109.089844 196.226562 C 109.089844 158.03125 109.089844 119.828125 109.089844 81.628906 C 130.027344 76.175781 146.132812 77.308594 156.859375 79.292969 C 192.507812 85.863281 205.324219 108.511719 246.671875 122.324219 C 265.035156 128.464844 281.09375 130.207031 291.574219 130.746094 C 286.746094 166.761719 281.914062 202.777344 277.078125 238.792969 Z M 277.078125 238.792969 " fill-opacity="1" fill-rule="nonzero"/></g><path fill="#00ec6a" d="M 198.351562 191.28125 L 191.117188 186.488281 C 178.699219 178.042969 171.082031 164.046875 171.082031 149.214844 L 171.082031 139.632812 C 179.535156 138.414062 187.535156 134.839844 194.316406 129.210938 L 197.894531 126.015625 L 201.476562 129.210938 C 207.875 134.839844 215.875 138.414062 224.332031 139.632812 L 224.710938 139.632812 L 224.710938 149.214844 C 224.710938 164.046875 217.476562 178.042969 204.675781 186.488281 Z M 198.351562 191.28125 " fill-opacity="1" fill-rule="nonzero"/><g clip-path="url(#c6896e93cc)"><path fill="#14c962" d="M 189.058594 189.605469 C 175.421875 180.402344 167.347656 165.265625 167.347656 149.214844 L 167.347656 136.285156 L 170.546875 135.828125 C 178.242188 134.761719 185.554688 131.417969 191.878906 126.320312 L 197.972656 120.917969 L 204.144531 126.394531 C 209.933594 131.417969 217.019531 134.6875 224.710938 135.828125 L 228.671875 135.828125 L 228.671875 149.214844 C 228.671875 165.570312 220.597656 180.628906 207.039062 189.53125 L 198.503906 195.917969 Z M 189.058594 189.605469 " fill-opacity="1" fill-rule="nonzero"/></g><path fill="#00ec6a" d="M 198.351562 191.28125 L 191.117188 186.488281 C 178.699219 178.042969 171.082031 164.046875 171.082031 149.214844 L 171.082031 139.632812 C 179.535156 138.414062 187.535156 134.839844 194.316406 129.210938 L 197.894531 126.015625 L 201.476562 129.210938 C 207.875 134.839844 215.875 138.414062 224.332031 139.632812 L 224.710938 139.632812 L 224.710938 149.214844 C 224.710938 164.046875 217.476562 178.042969 204.675781 186.488281 Z M 198.351562 191.28125 " fill-opacity="1" fill-rule="nonzero"/><path fill="#ffffff" d="M 196.371094 168.460938 C 196.371094 168.460938 195.992188 168.460938 196.371094 168.460938 C 195.152344 168.460938 194.390625 168.078125 193.554688 167.242188 L 184.335938 158.417969 C 183.117188 157.203125 183.117188 154.84375 184.335938 153.628906 C 185.554688 152.410156 187.917969 152.410156 189.136719 153.628906 L 195.914062 159.636719 L 207.570312 148.457031 C 208.789062 147.238281 211.152344 147.238281 212.371094 148.457031 C 213.589844 149.671875 213.589844 152.03125 212.371094 153.246094 L 198.351562 167.625 C 197.972656 168.078125 197.132812 168.460938 196.371094 168.460938 Z M 196.371094 168.460938 " fill-opacity="1" fill-rule="nonzero"/></svg>