<svg xmlns="http://www.w3.org/2000/svg" xmlns:xlink="http://www.w3.org/1999/xlink" width="500" zoomAndPan="magnify" viewBox="0 0 375 374.999991" height="500" preserveAspectRatio="xMidYMid meet" version="1.0"><defs><clipPath id="3ee84338d7"><path d="M 0 0 L 12 0 L 12 24.347656 L 0 24.347656 Z M 0 0 " clip-rule="nonzero"/></clipPath><clipPath id="ea69e12a77"><path d="M 246 46.226562 L 368.085938 46.226562 L 368.085938 263 L 246 263 Z M 246 46.226562 " clip-rule="nonzero"/></clipPath><clipPath id="cb868aa2fe"><path d="M 6.585938 46.226562 L 129 46.226562 L 129 263 L 6.585938 263 Z M 6.585938 46.226562 " clip-rule="nonzero"/></clipPath><clipPath id="eda79889f7"><path d="M 60 49 L 315 49 L 315 337.226562 L 60 337.226562 Z M 60 49 " clip-rule="nonzero"/></clipPath></defs><g clip-path="url(#3ee84338d7)"><path fill="#000000" d="M -42.566406 -125.652344 C -72.636719 -125.652344 -97.011719 -100.347656 -97.011719 -69.132812 C -97.011719 -37.917969 -77.234375 -35.652344 -42.566406 24.347656 C -8.003906 -35.652344 11.878906 -37.902344 11.878906 -69.132812 C 11.878906 -100.363281 -12.496094 -125.652344 -42.566406 -125.652344 Z M -42.566406 -47.773438 C -43.253906 -47.785156 -43.9375 -47.832031 -44.617188 -47.914062 C -45.300781 -47.992188 -45.976562 -48.109375 -46.644531 -48.253906 C -47.316406 -48.402344 -47.976562 -48.582031 -48.628906 -48.792969 C -49.28125 -49.003906 -49.921875 -49.246094 -50.550781 -49.523438 C -51.179688 -49.796875 -51.796875 -50.101562 -52.394531 -50.4375 C -52.992188 -50.769531 -53.574219 -51.136719 -54.136719 -51.527344 C -54.703125 -51.917969 -55.246094 -52.339844 -55.765625 -52.785156 C -56.289062 -53.230469 -56.789062 -53.699219 -57.265625 -54.195312 C -57.742188 -54.6875 -58.191406 -55.203125 -58.617188 -55.742188 C -59.042969 -56.28125 -59.441406 -56.839844 -59.8125 -57.417969 C -60.183594 -57.996094 -60.523438 -58.589844 -60.835938 -59.203125 C -61.148438 -59.816406 -61.433594 -60.441406 -61.683594 -61.078125 C -61.933594 -61.71875 -62.152344 -62.367188 -62.339844 -63.03125 C -62.527344 -63.691406 -62.683594 -64.359375 -62.804688 -65.035156 C -62.929688 -65.710938 -63.015625 -66.390625 -63.070312 -67.074219 C -63.128906 -67.761719 -63.148438 -68.445312 -63.136719 -69.132812 C -63.148438 -69.820312 -63.125 -70.503906 -63.070312 -71.191406 C -63.015625 -71.875 -62.925781 -72.554688 -62.804688 -73.230469 C -62.679688 -73.90625 -62.527344 -74.574219 -62.339844 -75.234375 C -62.148438 -75.894531 -61.929688 -76.542969 -61.679688 -77.183594 C -61.425781 -77.820312 -61.144531 -78.445312 -60.832031 -79.058594 C -60.519531 -79.667969 -60.179688 -80.261719 -59.808594 -80.839844 C -59.4375 -81.417969 -59.039062 -81.976562 -58.613281 -82.515625 C -58.1875 -83.054688 -57.734375 -83.570312 -57.257812 -84.0625 C -56.785156 -84.558594 -56.285156 -85.027344 -55.761719 -85.472656 C -55.238281 -85.917969 -54.695312 -86.335938 -54.132812 -86.726562 C -53.570312 -87.121094 -52.988281 -87.484375 -52.390625 -87.816406 C -51.792969 -88.152344 -51.179688 -88.457031 -50.550781 -88.730469 C -49.921875 -89.007812 -49.28125 -89.25 -48.628906 -89.460938 C -47.976562 -89.671875 -47.3125 -89.851562 -46.644531 -89.996094 C -45.972656 -90.144531 -45.296875 -90.257812 -44.617188 -90.339844 C -43.9375 -90.417969 -43.253906 -90.464844 -42.566406 -90.476562 C -41.878906 -90.464844 -41.199219 -90.417969 -40.515625 -90.339844 C -39.835938 -90.257812 -39.160156 -90.144531 -38.488281 -89.996094 C -37.820312 -89.851562 -37.15625 -89.671875 -36.503906 -89.460938 C -35.851562 -89.25 -35.210938 -89.007812 -34.582031 -88.730469 C -33.957031 -88.457031 -33.339844 -88.152344 -32.742188 -87.816406 C -32.144531 -87.484375 -31.5625 -87.121094 -31 -86.726562 C -30.4375 -86.335938 -29.894531 -85.917969 -29.371094 -85.472656 C -28.847656 -85.027344 -28.351562 -84.558594 -27.875 -84.0625 C -27.398438 -83.570312 -26.945312 -83.054688 -26.519531 -82.515625 C -26.09375 -81.976562 -25.695312 -81.417969 -25.324219 -80.839844 C -24.953125 -80.261719 -24.613281 -79.667969 -24.300781 -79.058594 C -23.988281 -78.445312 -23.707031 -77.820312 -23.453125 -77.183594 C -23.203125 -76.542969 -22.984375 -75.894531 -22.792969 -75.234375 C -22.605469 -74.574219 -22.453125 -73.90625 -22.328125 -73.230469 C -22.207031 -72.554688 -22.117188 -71.875 -22.0625 -71.191406 C -22.007812 -70.503906 -21.984375 -69.820312 -21.996094 -69.132812 C -21.984375 -68.445312 -22.003906 -67.761719 -22.0625 -67.074219 C -22.117188 -66.390625 -22.203125 -65.710938 -22.328125 -65.035156 C -22.449219 -64.359375 -22.605469 -63.691406 -22.792969 -63.03125 C -22.980469 -62.367188 -23.199219 -61.71875 -23.449219 -61.078125 C -23.699219 -60.441406 -23.984375 -59.816406 -24.296875 -59.203125 C -24.609375 -58.589844 -24.949219 -57.996094 -25.320312 -57.417969 C -25.691406 -56.839844 -26.089844 -56.28125 -26.515625 -55.742188 C -26.941406 -55.203125 -27.390625 -54.6875 -27.867188 -54.195312 C -28.34375 -53.699219 -28.84375 -53.230469 -29.367188 -52.785156 C -29.886719 -52.339844 -30.429688 -51.917969 -30.996094 -51.527344 C -31.558594 -51.136719 -32.140625 -50.769531 -32.738281 -50.4375 C -33.335938 -50.101562 -33.953125 -49.796875 -34.582031 -49.523438 C -35.210938 -49.246094 -35.851562 -49.003906 -36.503906 -48.792969 C -37.15625 -48.582031 -37.816406 -48.402344 -38.488281 -48.253906 C -39.15625 -48.109375 -39.832031 -47.992188 -40.515625 -47.914062 C -41.195312 -47.832031 -41.878906 -47.785156 -42.566406 -47.773438 Z M -42.566406 -47.773438 " fill-opacity="1" fill-rule="nonzero"/></g><g clip-path="url(#ea69e12a77)"><path fill="#cb6ce6" d="M 281.761719 133.824219 C 281.761719 163.460938 270.085938 190.957031 250.789062 210.078125 L 255.316406 212.03125 C 279.847656 222.605469 299.664062 240.316406 312.777344 262.355469 L 368.425781 262.355469 L 365.476562 242.28125 C 361.488281 215.128906 343.714844 191.980469 318.515625 181.117188 L 291.519531 169.484375 C 313.84375 160.972656 329.921875 137.433594 329.921875 109.648438 C 329.921875 74.707031 304.515625 46.375 273.179688 46.375 C 263.597656 46.375 254.660156 49.144531 246.789062 53.871094 C 268.097656 72.765625 281.761719 101.574219 281.761719 133.824219 " fill-opacity="1" fill-rule="nonzero"/></g><g clip-path="url(#cb868aa2fe)"><path fill="#cb6ce6" d="M 119.683594 212.03125 L 124.210938 210.082031 C 104.910156 190.957031 93.234375 163.460938 93.234375 133.824219 C 93.234375 101.574219 106.898438 72.765625 128.210938 53.871094 C 120.335938 49.144531 111.398438 46.375 101.820312 46.375 C 70.480469 46.375 45.074219 74.707031 45.074219 109.648438 C 45.074219 137.433594 61.148438 160.972656 83.480469 169.484375 L 56.480469 181.117188 C 31.28125 191.984375 13.507812 215.128906 9.523438 242.277344 L 6.570312 262.355469 L 62.226562 262.355469 C 75.335938 240.316406 95.152344 222.605469 119.683594 212.03125 " fill-opacity="1" fill-rule="nonzero"/></g><g clip-path="url(#eda79889f7)"><path fill="#cb6ce6" d="M 64.433594 310.660156 L 60.5 337.429688 L 314.496094 337.429688 L 310.566406 310.664062 C 305.25 274.464844 281.554688 243.597656 247.953125 229.117188 L 211.957031 213.601562 C 241.722656 202.253906 263.160156 170.859375 263.160156 133.824219 C 263.160156 87.226562 229.285156 49.453125 187.5 49.453125 C 145.710938 49.453125 111.835938 87.226562 111.835938 133.824219 C 111.835938 170.863281 133.273438 202.253906 163.046875 213.601562 L 127.050781 229.117188 C 93.445312 243.597656 69.75 274.460938 64.433594 310.660156 " fill-opacity="1" fill-rule="nonzero"/></g></svg>