<svg xmlns="http://www.w3.org/2000/svg" xmlns:xlink="http://www.w3.org/1999/xlink" width="500" zoomAndPan="magnify" viewBox="0 0 375 374.999991" height="500" preserveAspectRatio="xMidYMid meet" version="1.0"><defs><clipPath id="b8cab993fc"><path d="M 187 119 L 204 119 L 204 355.332031 L 187 355.332031 Z M 187 119 " clip-rule="nonzero"/></clipPath><clipPath id="3717e9ba5c"><path d="M 140 29.082031 L 251.644531 29.082031 L 251.644531 138 L 140 138 Z M 140 29.082031 " clip-rule="nonzero"/></clipPath></defs><g clip-path="url(#b8cab993fc)"><path fill="#cfcfcf" d="M 195.769531 355.332031 L 203.816406 119.964844 L 187.726562 119.964844 Z M 195.769531 355.332031 " fill-opacity="1" fill-rule="nonzero"/></g><g clip-path="url(#3717e9ba5c)"><path fill="#df3535" d="M 251.519531 83.457031 C 251.519531 85.234375 251.429688 87.011719 251.25 88.785156 C 251.070312 90.558594 250.804688 92.316406 250.449219 94.0625 C 250.09375 95.808594 249.648438 97.535156 249.117188 99.238281 C 248.589844 100.945312 247.976562 102.617188 247.277344 104.265625 C 246.578125 105.910156 245.796875 107.515625 244.9375 109.085938 C 244.078125 110.65625 243.140625 112.183594 242.125 113.664062 C 241.109375 115.144531 240.023438 116.574219 238.867188 117.949219 C 237.707031 119.328125 236.480469 120.644531 235.191406 121.902344 C 233.898438 123.164062 232.550781 124.359375 231.136719 125.488281 C 229.726562 126.617188 228.261719 127.675781 226.742188 128.667969 C 225.226562 129.65625 223.660156 130.570312 222.050781 131.410156 C 220.441406 132.25 218.792969 133.007812 217.105469 133.691406 C 215.417969 134.371094 213.703125 134.972656 211.953125 135.488281 C 210.207031 136.007812 208.4375 136.4375 206.648438 136.785156 C 204.855469 137.132812 203.050781 137.394531 201.234375 137.570312 C 199.417969 137.742188 197.597656 137.832031 195.769531 137.832031 C 193.945312 137.832031 192.125 137.742188 190.308594 137.570312 C 188.488281 137.394531 186.6875 137.132812 184.894531 136.785156 C 183.105469 136.4375 181.335938 136.007812 179.589844 135.488281 C 177.839844 134.972656 176.125 134.371094 174.4375 133.691406 C 172.75 133.007812 171.101562 132.25 169.492188 131.410156 C 167.882812 130.570312 166.316406 129.65625 164.800781 128.667969 C 163.28125 127.675781 161.816406 126.617188 160.40625 125.488281 C 158.992188 124.359375 157.640625 123.164062 156.351562 121.902344 C 155.058594 120.644531 153.835938 119.328125 152.675781 117.949219 C 151.519531 116.574219 150.433594 115.144531 149.417969 113.664062 C 148.402344 112.183594 147.464844 110.65625 146.605469 109.085938 C 145.746094 107.515625 144.964844 105.910156 144.265625 104.265625 C 143.566406 102.617188 142.953125 100.945312 142.421875 99.238281 C 141.894531 97.535156 141.449219 95.808594 141.09375 94.0625 C 140.738281 92.316406 140.46875 90.558594 140.292969 88.785156 C 140.113281 87.011719 140.023438 85.234375 140.023438 83.457031 C 140.023438 81.675781 140.113281 79.898438 140.292969 78.125 C 140.46875 76.351562 140.738281 74.59375 141.09375 72.847656 C 141.449219 71.101562 141.894531 69.375 142.421875 67.671875 C 142.953125 65.96875 143.566406 64.292969 144.265625 62.648438 C 144.964844 61 145.746094 59.394531 146.605469 57.824219 C 147.464844 56.253906 148.402344 54.726562 149.417969 53.246094 C 150.433594 51.765625 151.519531 50.335938 152.675781 48.960938 C 153.835938 47.582031 155.058594 46.265625 156.351562 45.007812 C 157.640625 43.746094 158.992188 42.550781 160.40625 41.421875 C 161.816406 40.292969 163.28125 39.234375 164.800781 38.246094 C 166.316406 37.253906 167.882812 36.339844 169.492188 35.5 C 171.101562 34.660156 172.75 33.902344 174.4375 33.21875 C 176.125 32.539062 177.839844 31.9375 179.589844 31.421875 C 181.335938 30.90625 183.105469 30.472656 184.894531 30.125 C 186.6875 29.777344 188.488281 29.515625 190.308594 29.34375 C 192.125 29.167969 193.945312 29.082031 195.769531 29.082031 C 197.597656 29.082031 199.417969 29.167969 201.234375 29.34375 C 203.050781 29.515625 204.855469 29.777344 206.648438 30.125 C 208.4375 30.472656 210.207031 30.90625 211.953125 31.421875 C 213.703125 31.9375 215.417969 32.539062 217.105469 33.21875 C 218.792969 33.902344 220.441406 34.660156 222.050781 35.5 C 223.660156 36.339844 225.226562 37.253906 226.742188 38.246094 C 228.261719 39.234375 229.726562 40.292969 231.136719 41.421875 C 232.550781 42.550781 233.898438 43.746094 235.191406 45.007812 C 236.480469 46.265625 237.707031 47.582031 238.867188 48.960938 C 240.023438 50.335938 241.109375 51.765625 242.125 53.246094 C 243.140625 54.726562 244.078125 56.253906 244.9375 57.824219 C 245.796875 59.394531 246.578125 61 247.277344 62.648438 C 247.976562 64.292969 248.589844 65.96875 249.117188 67.671875 C 249.648438 69.375 250.09375 71.101562 250.449219 72.847656 C 250.804688 74.59375 251.070312 76.351562 251.25 78.125 C 251.429688 79.898438 251.519531 81.675781 251.519531 83.457031 Z M 251.519531 83.457031 " fill-opacity="1" fill-rule="nonzero"/></g><path fill="#e8e7e7" d="M 163.871094 61.53125 C 153.777344 77.125 155.984375 93.859375 165.53125 100.082031 C 154.074219 92.613281 147.046875 72.613281 157.140625 57.019531 C 167.234375 41.425781 186.730469 36.574219 198.1875 44.042969 C 187.003906 41.308594 173.964844 45.9375 163.871094 61.53125 Z M 163.871094 61.53125 " fill-opacity="1" fill-rule="nonzero"/></svg>