<svg xmlns="http://www.w3.org/2000/svg" xmlns:xlink="http://www.w3.org/1999/xlink" width="500" zoomAndPan="magnify" viewBox="0 0 375 374.999991" height="500" preserveAspectRatio="xMidYMid meet" version="1.0"><defs><clipPath id="3469754839"><path d="M 37 86 L 337 86 L 337 349.410156 L 37 349.410156 Z M 37 86 " clip-rule="nonzero"/></clipPath></defs><g clip-path="url(#3469754839)"><path fill="#de6da0" d="M 197.496094 89.328125 C 189.652344 84.933594 176.820312 85.09375 168.996094 89.679688 L 51.242188 158.871094 C 43.429688 163.476562 37.109375 174.632812 37.109375 183.648438 L 37.109375 332.6875 C 37.109375 341.714844 44.511719 349.160156 53.527344 349.160156 L 123.148438 349.160156 C 132.300781 349.160156 139.703125 341.714844 139.703125 332.6875 L 139.703125 264.347656 C 139.703125 255.324219 147.109375 247.941406 156.082031 247.941406 L 217.390625 247.941406 C 226.457031 247.941406 233.839844 255.324219 233.839844 264.347656 L 233.839844 332.6875 C 233.839844 341.714844 241.292969 349.160156 250.394531 349.160156 L 320.011719 349.160156 C 328.96875 349.160156 336.445312 341.714844 336.445312 332.6875 L 336.445312 183.648438 C 336.445312 174.632812 329.953125 163.539062 322.039062 159.152344 L 197.496094 89.328125 " fill-opacity="1" fill-rule="nonzero"/></g><path fill="#de6da0" d="M 362.882812 140.664062 C 359.8125 146.082031 350.820312 146.90625 342.867188 142.355469 L 196.417969 57.324219 C 188.539062 52.789062 175.792969 52.910156 167.972656 57.550781 L 27.867188 142.019531 C 20.089844 146.691406 11.042969 146.082031 7.839844 140.664062 C 4.53125 135.257812 8.214844 126.917969 15.96875 122.308594 L 167.773438 30.789062 C 175.605469 26.144531 188.308594 25.945312 196.175781 30.523438 L 354.46875 122.378906 C 362.273438 126.917969 366.175781 135.144531 362.882812 140.664062 " fill-opacity="1" fill-rule="nonzero"/></svg>