<svg xmlns="http://www.w3.org/2000/svg" xmlns:xlink="http://www.w3.org/1999/xlink" width="500" zoomAndPan="magnify" viewBox="0 0 375 374.999991" height="500" preserveAspectRatio="xMidYMid meet" version="1.0"><defs><clipPath id="f7b7fcd768"><path d="M 12.953125 37.5 L 353.453125 37.5 L 353.453125 336.75 L 12.953125 336.75 Z M 12.953125 37.5 " clip-rule="nonzero"/></clipPath></defs><g clip-path="url(#f7b7fcd768)"><path stroke-linecap="round" transform="matrix(0.474017, 0, 0, 0.474017, 8.782024, 7.530758)" fill="none" stroke-linejoin="miter" d="M 368.1866 70.17098 C 359.426689 70.599499 351.482611 75.453297 347.090294 83.051264 C 238.032278 271.970337 128.974262 460.881169 19.908006 649.800242 C 15.293189 657.793764 15.30143 667.641454 19.908006 675.634976 C 24.522823 683.636739 33.035512 688.564705 42.273387 688.564705 C 259.491177 688.605908 476.700727 688.647112 693.918517 688.696557 C 703.13167 688.688316 711.636118 683.776832 716.250935 675.808032 C 720.873993 667.847472 720.898715 658.024505 716.325102 650.022742 C 608.181809 461.062465 500.022034 272.102189 391.870501 83.141912 C 387.041424 74.71163 377.910679 69.693017 368.203082 70.162739 Z M 368.1866 70.17098 " stroke="#000000" stroke-width="12.5" stroke-opacity="1" stroke-miterlimit="4"/></g><path stroke-linecap="round" transform="matrix(0.474017, 0, 0, 0.474017, 8.782024, 7.530758)" fill-opacity="1" fill="#ffcc00" fill-rule="evenodd" stroke-linejoin="round" d="M 369.447434 97.035808 C 260.686085 285.427473 151.932977 473.810897 43.171628 662.202562 C 259.779603 662.243766 476.387578 662.28497 693.003794 662.326174 C 585.148927 473.885064 477.302301 285.476917 369.447434 97.035808 Z M 369.447434 97.035808 " stroke="#000000" stroke-width="29.444" stroke-opacity="1" stroke-miterlimit="4"/><path fill="#000000" d="M 206.226562 278.671875 C 206.230469 279.347656 206.199219 280.019531 206.136719 280.691406 C 206.074219 281.367188 205.976562 282.03125 205.847656 282.695312 C 205.71875 283.359375 205.558594 284.015625 205.363281 284.660156 C 205.171875 285.308594 204.945312 285.945312 204.6875 286.570312 C 204.433594 287.195312 204.148438 287.804688 203.828125 288.402344 C 203.511719 289 203.167969 289.578125 202.792969 290.140625 C 202.421875 290.703125 202.019531 291.246094 201.59375 291.769531 C 201.164062 292.292969 200.714844 292.796875 200.238281 293.273438 C 199.761719 293.753906 199.261719 294.207031 198.742188 294.636719 C 198.21875 295.066406 197.679688 295.46875 197.117188 295.84375 C 196.554688 296.222656 195.976562 296.570312 195.382812 296.886719 C 194.789062 297.207031 194.179688 297.496094 193.554688 297.757812 C 192.929688 298.015625 192.296875 298.242188 191.648438 298.441406 C 191.003906 298.636719 190.347656 298.800781 189.6875 298.933594 C 189.023438 299.066406 188.355469 299.164062 187.683594 299.230469 C 187.011719 299.296875 186.335938 299.332031 185.660156 299.332031 C 184.988281 299.332031 184.3125 299.296875 183.640625 299.230469 C 182.96875 299.164062 182.300781 299.066406 181.636719 298.933594 C 180.976562 298.800781 180.320312 298.636719 179.675781 298.441406 C 179.027344 298.242188 178.394531 298.015625 177.769531 297.757812 C 177.144531 297.496094 176.535156 297.207031 175.941406 296.886719 C 175.347656 296.570312 174.769531 296.222656 174.207031 295.84375 C 173.644531 295.46875 173.105469 295.066406 172.582031 294.636719 C 172.0625 294.207031 171.5625 293.753906 171.085938 293.273438 C 170.609375 292.796875 170.15625 292.292969 169.730469 291.769531 C 169.304688 291.246094 168.902344 290.703125 168.527344 290.140625 C 168.15625 289.578125 167.808594 289 167.492188 288.402344 C 167.175781 287.804688 166.890625 287.195312 166.632812 286.570312 C 166.378906 285.945312 166.152344 285.308594 165.960938 284.660156 C 165.765625 284.015625 165.605469 283.359375 165.476562 282.695312 C 165.347656 282.035156 165.25 281.367188 165.1875 280.691406 C 165.125 280.019531 165.09375 279.347656 165.097656 278.671875 C 165.09375 277.996094 165.125 277.320312 165.1875 276.648438 C 165.25 275.976562 165.347656 275.308594 165.476562 274.644531 C 165.605469 273.980469 165.765625 273.328125 165.960938 272.679688 C 166.152344 272.03125 166.378906 271.398438 166.632812 270.773438 C 166.890625 270.148438 167.175781 269.535156 167.492188 268.9375 C 167.808594 268.34375 168.15625 267.761719 168.527344 267.199219 C 168.902344 266.636719 169.304688 266.09375 169.730469 265.570312 C 170.15625 265.046875 170.609375 264.546875 171.085938 264.066406 C 171.5625 263.589844 172.0625 263.132812 172.582031 262.703125 C 173.105469 262.273438 173.644531 261.871094 174.207031 261.496094 C 174.769531 261.121094 175.347656 260.773438 175.941406 260.453125 C 176.535156 260.132812 177.144531 259.84375 177.769531 259.585938 C 178.394531 259.324219 179.027344 259.097656 179.675781 258.902344 C 180.320312 258.703125 180.976562 258.539062 181.636719 258.40625 C 182.300781 258.277344 182.96875 258.175781 183.640625 258.109375 C 184.3125 258.042969 184.988281 258.011719 185.660156 258.011719 C 186.335938 258.011719 187.011719 258.042969 187.683594 258.109375 C 188.355469 258.175781 189.023438 258.277344 189.6875 258.40625 C 190.347656 258.539062 191.003906 258.703125 191.648438 258.902344 C 192.296875 259.097656 192.929688 259.324219 193.554688 259.585938 C 194.179688 259.84375 194.789062 260.132812 195.382812 260.453125 C 195.976562 260.773438 196.554688 261.121094 197.117188 261.496094 C 197.679688 261.871094 198.21875 262.273438 198.742188 262.703125 C 199.261719 263.132812 199.761719 263.589844 200.238281 264.066406 C 200.714844 264.546875 201.164062 265.046875 201.59375 265.570312 C 202.019531 266.09375 202.421875 266.636719 202.792969 267.199219 C 203.167969 267.761719 203.511719 268.34375 203.828125 268.9375 C 204.148438 269.535156 204.433594 270.148438 204.6875 270.773438 C 204.945312 271.398438 205.171875 272.03125 205.363281 272.679688 C 205.558594 273.328125 205.71875 273.980469 205.847656 274.644531 C 205.976562 275.308594 206.074219 275.976562 206.136719 276.648438 C 206.199219 277.320312 206.230469 277.996094 206.226562 278.671875 Z M 206.226562 278.671875 " fill-opacity="1" fill-rule="nonzero"/><path fill="#df3535" d="M 183.378906 114.875 C 171.789062 115.050781 162.527344 124.582031 162.6875 136.171875 L 165.980469 224.316406 C 166.261719 231.890625 167.65625 237.84375 174.203125 241.664062 C 180.746094 245.480469 186.644531 245.480469 193.1875 241.664062 C 199.730469 237.84375 201.128906 231.890625 201.410156 224.316406 L 204.703125 136.171875 C 204.78125 130.496094 202.558594 125.03125 198.542969 121.019531 C 194.523438 117.007812 189.054688 114.789062 183.378906 114.875 Z M 183.378906 114.875 " fill-opacity="1" fill-rule="evenodd"/></svg>