<svg xmlns="http://www.w3.org/2000/svg" xmlns:xlink="http://www.w3.org/1999/xlink" width="500" zoomAndPan="magnify" viewBox="0 0 375 374.999991" height="500" preserveAspectRatio="xMidYMid meet" version="1.0"><defs><clipPath id="af3e03daad"><path d="M 76 7.597656 L 299 7.597656 L 299 332 L 76 332 Z M 76 7.597656 " clip-rule="nonzero"/></clipPath><clipPath id="5d21729470"><path d="M 49.875 296 L 325.125 296 L 325.125 367.597656 L 49.875 367.597656 Z M 49.875 296 " clip-rule="nonzero"/></clipPath><clipPath id="d99e46111c"><path d="M 0 0 L 12 0 L 12 24.347656 L 0 24.347656 Z M 0 0 " clip-rule="nonzero"/></clipPath></defs><g clip-path="url(#af3e03daad)"><path fill="#cb6ce6" d="M 187.496094 173.375 C 153.011719 173.375 125.066406 145.421875 125.066406 110.941406 C 125.066406 76.464844 153.011719 48.511719 187.496094 48.511719 C 221.976562 48.511719 249.921875 76.464844 249.921875 110.941406 C 249.921875 145.421875 221.976562 173.375 187.496094 173.375 Z M 187.496094 7.546875 C 126.007812 7.546875 76.164062 57.390625 76.164062 118.875 C 76.164062 180.359375 187.496094 331.40625 187.496094 331.40625 C 187.496094 331.40625 298.824219 180.359375 298.824219 118.875 C 298.824219 57.390625 248.980469 7.546875 187.496094 7.546875 " fill-opacity="1" fill-rule="nonzero"/></g><g clip-path="url(#5d21729470)"><path fill="#cb6ce6" d="M 281.941406 304.101562 C 266.5625 300.5625 248.125 297.992188 228.035156 296.519531 C 225.410156 300.445312 222.886719 304.183594 220.488281 307.695312 C 242.582031 309.015625 262.8125 311.660156 279.328125 315.460938 C 307.269531 321.890625 313.382812 329.011719 313.382812 331.210938 C 313.382812 333.410156 307.269531 340.53125 279.328125 346.960938 C 254.867188 352.585938 222.253906 355.6875 187.496094 355.6875 C 152.734375 355.6875 120.121094 352.585938 95.660156 346.960938 C 67.722656 340.53125 61.605469 333.410156 61.605469 331.210938 C 61.605469 329.011719 67.722656 321.890625 95.660156 315.460938 C 112.316406 311.628906 132.75 308.96875 155.058594 307.660156 C 152.660156 304.148438 150.136719 300.410156 147.507812 296.480469 C 127.203125 297.945312 108.574219 300.527344 93.046875 304.101562 C 64.449219 310.679688 49.949219 319.804688 49.949219 331.210938 C 49.949219 342.617188 64.449219 351.738281 93.046875 358.320312 C 118.34375 364.140625 151.882812 367.347656 187.496094 367.347656 C 223.105469 367.347656 256.644531 364.140625 281.941406 358.320312 C 310.539062 351.738281 325.039062 342.617188 325.039062 331.210938 C 325.039062 319.804688 310.539062 310.679688 281.941406 304.101562 " fill-opacity="1" fill-rule="nonzero"/></g><g clip-path="url(#d99e46111c)"><path fill="#000000" d="M -42.566406 -125.652344 C -72.636719 -125.652344 -97.011719 -100.347656 -97.011719 -69.132812 C -97.011719 -37.917969 -77.234375 -35.652344 -42.566406 24.347656 C -8.003906 -35.652344 11.878906 -37.902344 11.878906 -69.132812 C 11.878906 -100.363281 -12.496094 -125.652344 -42.566406 -125.652344 Z M -42.566406 -47.773438 C -43.253906 -47.785156 -43.9375 -47.832031 -44.617188 -47.914062 C -45.300781 -47.992188 -45.976562 -48.109375 -46.644531 -48.253906 C -47.316406 -48.402344 -47.976562 -48.582031 -48.628906 -48.792969 C -49.28125 -49.003906 -49.921875 -49.246094 -50.550781 -49.523438 C -51.179688 -49.796875 -51.796875 -50.101562 -52.394531 -50.4375 C -52.992188 -50.769531 -53.574219 -51.136719 -54.136719 -51.527344 C -54.703125 -51.917969 -55.246094 -52.339844 -55.765625 -52.785156 C -56.289062 -53.230469 -56.789062 -53.699219 -57.265625 -54.195312 C -57.742188 -54.6875 -58.191406 -55.203125 -58.617188 -55.742188 C -59.042969 -56.28125 -59.441406 -56.839844 -59.8125 -57.417969 C -60.183594 -57.996094 -60.523438 -58.589844 -60.835938 -59.203125 C -61.148438 -59.816406 -61.433594 -60.441406 -61.683594 -61.078125 C -61.933594 -61.71875 -62.152344 -62.367188 -62.339844 -63.03125 C -62.527344 -63.691406 -62.683594 -64.359375 -62.804688 -65.035156 C -62.929688 -65.710938 -63.015625 -66.390625 -63.070312 -67.074219 C -63.128906 -67.761719 -63.148438 -68.445312 -63.136719 -69.132812 C -63.148438 -69.820312 -63.125 -70.503906 -63.070312 -71.191406 C -63.015625 -71.875 -62.925781 -72.554688 -62.804688 -73.230469 C -62.679688 -73.90625 -62.527344 -74.574219 -62.339844 -75.234375 C -62.148438 -75.894531 -61.929688 -76.542969 -61.679688 -77.183594 C -61.425781 -77.820312 -61.144531 -78.445312 -60.832031 -79.058594 C -60.519531 -79.667969 -60.179688 -80.261719 -59.808594 -80.839844 C -59.4375 -81.417969 -59.039062 -81.976562 -58.613281 -82.515625 C -58.1875 -83.054688 -57.734375 -83.570312 -57.257812 -84.0625 C -56.785156 -84.558594 -56.285156 -85.027344 -55.761719 -85.472656 C -55.238281 -85.917969 -54.695312 -86.335938 -54.132812 -86.726562 C -53.570312 -87.121094 -52.988281 -87.484375 -52.390625 -87.816406 C -51.792969 -88.152344 -51.179688 -88.457031 -50.550781 -88.730469 C -49.921875 -89.007812 -49.28125 -89.25 -48.628906 -89.460938 C -47.976562 -89.671875 -47.3125 -89.851562 -46.644531 -89.996094 C -45.972656 -90.144531 -45.296875 -90.257812 -44.617188 -90.339844 C -43.9375 -90.417969 -43.253906 -90.464844 -42.566406 -90.476562 C -41.878906 -90.464844 -41.199219 -90.417969 -40.515625 -90.339844 C -39.835938 -90.257812 -39.160156 -90.144531 -38.488281 -89.996094 C -37.820312 -89.851562 -37.15625 -89.671875 -36.503906 -89.460938 C -35.851562 -89.25 -35.210938 -89.007812 -34.582031 -88.730469 C -33.957031 -88.457031 -33.339844 -88.152344 -32.742188 -87.816406 C -32.144531 -87.484375 -31.5625 -87.121094 -31 -86.726562 C -30.4375 -86.335938 -29.894531 -85.917969 -29.371094 -85.472656 C -28.847656 -85.027344 -28.351562 -84.558594 -27.875 -84.0625 C -27.398438 -83.570312 -26.945312 -83.054688 -26.519531 -82.515625 C -26.09375 -81.976562 -25.695312 -81.417969 -25.324219 -80.839844 C -24.953125 -80.261719 -24.613281 -79.667969 -24.300781 -79.058594 C -23.988281 -78.445312 -23.707031 -77.820312 -23.453125 -77.183594 C -23.203125 -76.542969 -22.984375 -75.894531 -22.792969 -75.234375 C -22.605469 -74.574219 -22.453125 -73.90625 -22.328125 -73.230469 C -22.207031 -72.554688 -22.117188 -71.875 -22.0625 -71.191406 C -22.007812 -70.503906 -21.984375 -69.820312 -21.996094 -69.132812 C -21.984375 -68.445312 -22.003906 -67.761719 -22.0625 -67.074219 C -22.117188 -66.390625 -22.203125 -65.710938 -22.328125 -65.035156 C -22.449219 -64.359375 -22.605469 -63.691406 -22.792969 -63.03125 C -22.980469 -62.367188 -23.199219 -61.71875 -23.449219 -61.078125 C -23.699219 -60.441406 -23.984375 -59.816406 -24.296875 -59.203125 C -24.609375 -58.589844 -24.949219 -57.996094 -25.320312 -57.417969 C -25.691406 -56.839844 -26.089844 -56.28125 -26.515625 -55.742188 C -26.941406 -55.203125 -27.390625 -54.6875 -27.867188 -54.195312 C -28.34375 -53.699219 -28.84375 -53.230469 -29.367188 -52.785156 C -29.886719 -52.339844 -30.429688 -51.917969 -30.996094 -51.527344 C -31.558594 -51.136719 -32.140625 -50.769531 -32.738281 -50.4375 C -33.335938 -50.101562 -33.953125 -49.796875 -34.582031 -49.523438 C -35.210938 -49.246094 -35.851562 -49.003906 -36.503906 -48.792969 C -37.15625 -48.582031 -37.816406 -48.402344 -38.488281 -48.253906 C -39.15625 -48.109375 -39.832031 -47.992188 -40.515625 -47.914062 C -41.195312 -47.832031 -41.878906 -47.785156 -42.566406 -47.773438 Z M -42.566406 -47.773438 " fill-opacity="1" fill-rule="nonzero"/></g></svg>