<svg xmlns="http://www.w3.org/2000/svg" xmlns:xlink="http://www.w3.org/1999/xlink" width="500" zoomAndPan="magnify" viewBox="0 0 375 374.999991" height="500" preserveAspectRatio="xMidYMid meet" version="1.0"><defs><clipPath id="5c13be493b"><path d="M 6.28125 8.226562 L 367.78125 8.226562 L 367.78125 369.726562 L 6.28125 369.726562 Z M 6.28125 8.226562 " clip-rule="nonzero"/></clipPath></defs><g clip-path="url(#5c13be493b)"><path fill="#cb6ce6" d="M 314.800781 61.160156 C 280.667969 27.023438 235.285156 8.226562 187.007812 8.226562 C 138.734375 8.226562 93.351562 27.023438 59.214844 61.160156 C 25.082031 95.292969 6.28125 140.679688 6.28125 188.953125 C 6.28125 237.222656 25.082031 282.609375 59.214844 316.746094 C 93.351562 350.878906 138.734375 369.679688 187.007812 369.679688 C 235.285156 369.679688 280.667969 350.878906 314.800781 316.746094 C 348.9375 282.609375 367.734375 237.226562 367.734375 188.953125 C 367.734375 140.675781 348.9375 95.292969 314.800781 61.160156 Z M 314.800781 61.160156 " fill-opacity="1" fill-rule="nonzero"/></g><path fill="#ffffff" d="M 230.171875 103.113281 C 231.585938 104.527344 232.925781 106.007812 234.191406 107.550781 C 235.460938 109.097656 236.652344 110.699219 237.761719 112.363281 C 238.871094 114.023438 239.898438 115.738281 240.839844 117.5 C 241.785156 119.261719 242.636719 121.070312 243.402344 122.914062 C 244.167969 124.761719 244.839844 126.640625 245.421875 128.554688 C 246 130.46875 246.484375 132.40625 246.875 134.367188 C 247.265625 136.324219 247.558594 138.300781 247.753906 140.289062 C 247.949219 142.28125 248.046875 144.273438 248.046875 146.273438 C 248.046875 148.273438 247.949219 150.265625 247.753906 152.257812 C 247.558594 154.246094 247.265625 156.21875 246.875 158.179688 C 246.484375 160.140625 246 162.078125 245.421875 163.992188 C 244.839844 165.90625 244.167969 167.785156 243.402344 169.632812 C 242.636719 171.476562 241.785156 173.285156 240.839844 175.046875 C 239.898438 176.808594 238.871094 178.523438 237.761719 180.183594 C 236.652344 181.847656 235.460938 183.449219 234.191406 184.996094 C 232.925781 186.539062 231.585938 188.019531 230.171875 189.433594 C 228.757812 190.847656 227.277344 192.1875 225.730469 193.457031 C 224.1875 194.722656 222.582031 195.914062 220.921875 197.023438 C 219.257812 198.136719 217.546875 199.160156 215.785156 200.105469 C 214.019531 201.046875 212.214844 201.898438 210.367188 202.664062 C 208.523438 203.429688 206.640625 204.101562 204.730469 204.683594 C 202.816406 205.261719 200.878906 205.75 198.917969 206.136719 C 196.957031 206.527344 194.984375 206.820312 192.992188 207.015625 C 191.003906 207.214844 189.007812 207.3125 187.011719 207.3125 C 185.011719 207.3125 183.015625 207.214844 181.027344 207.015625 C 179.039062 206.820312 177.0625 206.527344 175.101562 206.136719 C 173.140625 205.75 171.207031 205.261719 169.292969 204.683594 C 167.378906 204.101562 165.5 203.429688 163.652344 202.664062 C 161.804688 201.898438 160 201.046875 158.238281 200.105469 C 156.472656 199.160156 154.761719 198.136719 153.101562 197.023438 C 151.4375 195.914062 149.832031 194.722656 148.289062 193.457031 C 146.742188 192.1875 145.265625 190.847656 143.851562 189.433594 C 142.4375 188.019531 141.097656 186.539062 139.828125 184.996094 C 138.558594 183.449219 137.371094 181.847656 136.257812 180.183594 C 135.148438 178.523438 134.121094 176.808594 133.179688 175.046875 C 132.238281 173.285156 131.382812 171.476562 130.617188 169.632812 C 129.855469 167.785156 129.179688 165.90625 128.601562 163.992188 C 128.019531 162.078125 127.535156 160.140625 127.144531 158.179688 C 126.753906 156.21875 126.460938 154.246094 126.265625 152.257812 C 126.070312 150.265625 125.972656 148.273438 125.972656 146.273438 C 125.972656 144.273438 126.070312 142.28125 126.265625 140.289062 C 126.460938 138.300781 126.753906 136.328125 127.144531 134.367188 C 127.535156 132.40625 128.019531 130.46875 128.601562 128.554688 C 129.179688 126.640625 129.855469 124.761719 130.617188 122.914062 C 131.382812 121.070312 132.238281 119.261719 133.179688 117.5 C 134.121094 115.738281 135.148438 114.023438 136.257812 112.363281 C 137.371094 110.699219 138.558594 109.097656 139.828125 107.550781 C 141.097656 106.007812 142.4375 104.527344 143.851562 103.113281 C 145.265625 101.699219 146.742188 100.359375 148.289062 99.089844 C 149.832031 97.824219 151.4375 96.632812 153.101562 95.523438 C 154.761719 94.410156 156.472656 93.386719 158.238281 92.441406 C 160 91.5 161.804688 90.648438 163.652344 89.882812 C 165.5 89.117188 167.378906 88.445312 169.292969 87.863281 C 171.207031 87.285156 173.140625 86.796875 175.101562 86.410156 C 177.0625 86.019531 179.039062 85.726562 181.027344 85.53125 C 183.015625 85.332031 185.011719 85.234375 187.011719 85.234375 C 189.007812 85.234375 191.003906 85.332031 192.992188 85.53125 C 194.984375 85.726562 196.957031 86.019531 198.917969 86.410156 C 200.878906 86.796875 202.816406 87.285156 204.730469 87.863281 C 206.640625 88.445312 208.523438 89.117188 210.367188 89.882812 C 212.214844 90.648438 214.019531 91.5 215.785156 92.441406 C 217.546875 93.386719 219.257812 94.410156 220.921875 95.523438 C 222.582031 96.632812 224.1875 97.824219 225.730469 99.089844 C 227.277344 100.359375 228.757812 101.699219 230.171875 103.113281 Z M 230.171875 103.113281 " fill-opacity="1" fill-rule="nonzero"/><path fill="#ffffff" d="M 188.773438 234.433594 L 185.246094 234.433594 C 135.375 234.433594 93.375 268.105469 80.71875 313.953125 C 109.378906 338.363281 146.5 353.117188 187.007812 353.117188 C 227.515625 353.117188 264.636719 338.363281 293.300781 313.953125 C 280.644531 268.109375 238.648438 234.433594 188.769531 234.433594 Z M 188.773438 234.433594 " fill-opacity="1" fill-rule="nonzero"/></svg>